<svg xmlns="http://www.w3.org/2000/svg" viewBox="0 0 100 125" class="project__link-icon"><path d="M5273.1 2400.1v-2c0-2.8-5-4-9.7-4s-9.7 1.3-9.7 4v2c0 1.8.7 3.6 2 4.9l5 4.9c.3.3.4.6.4 1v6.4c0 .4.2.7.6.8l2.9.9c.5.1 1-.2 1-.8v-7.2c0-.4.2-.7.4-1l5.1-5c1.3-1.3 2-3.1 2-4.9zm-9.7-.1c-4.8 0-7.4-1.3-7.5-1.8.1-.5 2.7-1.8 7.5-1.8s7.3 1.3 7.5 1.8c-.2.5-2.7 1.8-7.5 1.8z"/><path d="M5268.4 2410.3c-.6 0-1 .4-1 1s.4 1 1 1h4.3c.6 0 1-.4 1-1s-.4-1-1-1h-4.3zM5272.7 2413.7h-4.3c-.6 0-1 .4-1 1s.4 1 1 1h4.3c.6 0 1-.4 1-1s-.4-1-1-1zM5272.7 2417h-4.3c-.6 0-1 .4-1 1s.4 1 1 1h4.3c.6 0 1-.4 1-1 0-.5-.4-1-1-1z"/><g><path d="M83.9 70.3c0 7.5-6.1 13.6-13.6 13.6H29.7c-7.5 0-13.6-6.1-13.6-13.6V29.7c0-7.5 6.1-13.6 13.6-13.6h11.8V2.5H29.7c-15 0-27.2 12.2-27.2 27.2v40.5c0 15 12.2 27.2 27.2 27.2h40.5c15 0 27.2-12.2 27.2-27.2V58.5H83.9v11.8z"/><path d="M90.7 2.5H56.6v13.6h17.7L36.7 53.7c-2.7 2.6-2.7 7 0 9.6 1.3 1.3 3.1 2 4.8 2s3.5-.7 4.8-2l37.6-37.6v17.7h13.6V9.3c0-3.8-3-6.8-6.8-6.8z"/></g></svg>