<svg class="home-skill-icon home-skill-icon__css3" xmlns="http://www.w3.org/2000/svg" version="1" viewBox="420 10 360 550" width="120" height="175"><title>CSS3</title><path fill="#131313" d="M685.164 96.681h-24.688l25.674 27.859v13.261h-52.882v-15.526h25.669l-25.669-27.86v-13.28h51.896v15.546zm-62.378 0h-24.688l25.673 27.859v13.261h-52.882v-15.526h25.672l-25.672-27.86v-13.28h51.897v15.546zm-61.768.631h-26.64v24.313h26.64v16.176h-45.574V81.135h45.574v16.177z"/><path fill="#1572B6" d="M479.142 467.29l-27.071-303.62h297.45l-27.096 303.571-121.811 33.77z"/><path fill="#33A9DC" d="M600.798 475.199l98.427-27.288 23.157-259.415H600.798z"/><path fill="#FFF" d="M600.797 298.496h49.275l3.403-38.132h-52.678v-37.239h93.375l-.893 9.991-9.152 102.616h-83.33z"/><path fill="#EBEBEB" d="M601.02 395.204l-.163.046-41.472-11.199-2.652-29.698H519.354l5.216 58.467 76.278 21.176.172-.048z"/><path fill="#FFF" d="M646.907 334.156l-4.484 49.87-41.532 11.21v38.742l76.339-21.158.56-6.29 6.478-72.374z"/><path fill="#EBEBEB" d="M600.926 223.125v37.239h-89.947l-.747-8.37-1.697-18.878-.89-9.991zM600.797 298.5v37.238H559.85l-.746-8.369-1.698-18.878-.89-9.991z"/></svg>