<svg class="home-contact-icon home-contact-icon__github" fill="#D9D9D9" width="1.75em" height="1.75em" viewBox="0 0 28 28" xmlns="http://www.w3.org/2000/svg"><path d="M26.122 7.147c-1.252-2.198-2.95-3.94-5.095-5.222C18.882.64 16.54 0 14 0S9.117.642 6.973 1.925C4.828 3.208 3.13 4.949 1.878 7.147.626 9.347 0 11.747 0 14.351c0 3.127.89 5.939 2.67 8.436 1.78 2.498 4.08 4.226 6.9 5.185.328.063.571.019.73-.13a.74.74 0 0 0 .236-.56l-.01-1.01c-.005-.635-.008-1.19-.008-1.662l-.42.074a5.22 5.22 0 0 1-1.011.065 7.526 7.526 0 0 1-1.267-.13 2.798 2.798 0 0 1-1.222-.56 2.37 2.37 0 0 1-.801-1.15l-.183-.43a4.691 4.691 0 0 0-.574-.952c-.261-.35-.525-.586-.793-.71l-.127-.094a1.352 1.352 0 0 1-.237-.224 1.029 1.029 0 0 1-.164-.262c-.037-.087-.007-.16.09-.215.098-.057.274-.084.53-.084l.364.056c.243.05.544.2.902.448.359.25.653.573.884.972.28.51.617.9 1.012 1.168.395.268.793.401 1.194.401a5.06 5.06 0 0 0 1.039-.093c.291-.062.565-.156.82-.28.11-.835.407-1.477.893-1.925a12.206 12.206 0 0 1-1.868-.336 7.34 7.34 0 0 1-1.714-.73 4.938 4.938 0 0 1-1.467-1.251c-.389-.499-.708-1.153-.957-1.962-.249-.81-.374-1.744-.374-2.803 0-1.508.48-2.79 1.44-3.85-.45-1.133-.407-2.404.128-3.811.353-.113.875-.028 1.568.252.693.28 1.2.52 1.522.72.322.198.58.367.775.504a12.648 12.648 0 0 1 3.5-.486c1.203 0 2.37.162 3.5.486l.693-.448a9.708 9.708 0 0 1 1.676-.823c.645-.249 1.137-.317 1.478-.205.546 1.408.595 2.678.145 3.812.96 1.058 1.44 2.342 1.44 3.849 0 1.059-.125 1.996-.373 2.812-.25.816-.571 1.47-.966 1.962a5.126 5.126 0 0 1-1.477 1.243c-.59.336-1.16.579-1.714.729-.553.15-1.175.262-1.868.336.632.56.948 1.445.948 2.654v3.942c0 .224.076.41.228.56.152.15.392.193.72.13 2.82-.958 5.12-2.687 6.9-5.184 1.78-2.498 2.67-5.31 2.67-8.437 0-2.603-.627-5.004-1.878-7.203z" fill-rule="nonzero"/></svg>