<svg class="home-skill-icon home-skill-icon__html5" version="1" xmlns="http://www.w3.org/2000/svg" viewBox="0 0 390 560" width="120" height="180"><title>HTML5</title><path fill="#E44F26" d="M75.383 467.266l-27.07-303.62h297.45l-27.098 303.571-121.809 33.769z"/><path fill="#F1662A" d="M197.038 475.175l98.427-27.288 23.158-259.416H197.038z"/><path fill="#EBEBEB" d="M197.038 301.08h-49.275l-3.404-38.132h52.679v-37.239h-93.375l.892 9.991 9.152 102.616h83.331zM197.038 397.788l-.163.046-41.472-11.199-2.652-29.698H115.371l5.217 58.467 76.278 21.176.172-.048z"/><path fill="#010101" d="M75.988 81.135h18.924v18.696h17.311V81.135h18.925v56.618h-18.924v-18.958h-17.31v18.958H75.988V81.135zM156.032 99.91h-16.66V81.135h52.252V99.91h-16.667v37.843h-18.924V99.91h-.001zM199.917 81.135h19.733l12.137 19.894 12.127-19.894h19.739v56.618h-18.846V109.69l-13.021 20.13h-.325l-13.028-20.13v28.063h-18.517V81.135zM273.071 81.135H292v37.903h26.612v18.714H273.07V81.135z"/><path fill="#FFF" d="M196.909 301.08v37.236h45.854l-4.322 48.294-41.532 11.21v38.742l76.34-21.158.559-6.29 8.751-98.035.908-9.999h-10.034zM196.909 225.709v37.239h89.947l.747-8.37 1.696-18.878.891-9.991z"/></svg>