<svg class="home-contact-icon home-contact-icon__linkedin" fill="#D9D9D9" width="1.75em" height="1.75em" viewBox="0 0 28 28" xmlns="http://www.w3.org/2000/svg"><path d="M4.32 23.443h4.211V10.792h-4.21v12.65zM8.805 6.89c-.012-.632-.231-1.155-.657-1.568-.425-.413-.99-.62-1.695-.62-.705 0-1.279.207-1.723.62-.443.413-.665.936-.665 1.568 0 .62.216 1.139.647 1.558.432.42.994.63 1.686.63h.019c.717 0 1.294-.21 1.731-.63.438-.42.657-.939.657-1.558zm10.664 16.552h4.21v-7.256c0-1.871-.443-3.287-1.33-4.247s-2.06-1.44-3.518-1.44c-1.653 0-2.923.71-3.81 2.133h.036v-1.841h-4.21c.036.802.036 5.019 0 12.65h4.21V16.37c0-.462.043-.802.128-1.021.182-.425.456-.787.82-1.085.365-.297.814-.446 1.35-.446 1.409 0 2.114.954 2.114 2.862v6.763zM28 5.25v17.5c0 1.446-.513 2.683-1.54 3.71-1.027 1.027-2.264 1.54-3.71 1.54H5.25c-1.446 0-2.683-.513-3.71-1.54C.513 25.433 0 24.196 0 22.75V5.25c0-1.446.513-2.683 1.54-3.71C2.567.513 3.804 0 5.25 0h17.5c1.446 0 2.683.513 3.71 1.54C27.487 2.567 28 3.804 28 5.25z" fill-rule="nonzero"/></svg>