<svg class="home-skill-icon home-skill-icon__skill-lines" width="15.063em" height="2.813em" viewBox="0 0 241 45" xmlns="http://www.w3.org/2000/svg"><g stroke="#979797" stroke-width="2" fill="none" fill-rule="evenodd" stroke-linecap="round"><path d="M120.5 1.5v40.112M120.317 2c-7.857 9.314-19.952 14.565-36.283 15.755C67.704 18.945 59.358 27.436 59 43.23M121 2c7.857 9.314 19.952 14.565 36.283 15.755 16.33 1.19 24.676 9.681 25.034 25.475"/><path d="M120 2c-5.396 5.98-11.98 9.7-19.75 11.16-11.817 2.223-35.03 1.048-50.829 2.031C18.037 17.146 1.897 26.75 1 44M121 2c5.396 5.98 11.98 9.7 19.75 11.16 11.817 2.223 35.03 1.048 50.829 2.031C222.963 17.146 239.103 26.75 240 44"/></g></svg>