<svg class="home-skill-icon home-skill-icon__sass" width="2.938em" height="2.188em" viewBox="0 0 47 35" xmlns="http://www.w3.org/2000/svg"><title>Sass</title><path d="M40.335 19.812a9.795 9.795 0 0 0-4.247.97c-.439-.853-.878-1.6-.952-2.157-.082-.647-.183-1.043-.082-1.816.1-.773.558-1.87.558-1.96-.009-.081-.1-.477-1.043-.486-.943-.009-1.757.18-1.849.423-.091.243-.274.8-.393 1.376-.165.845-1.886 3.839-2.865 5.412-.32-.611-.595-1.15-.65-1.582-.082-.648-.183-1.043-.082-1.817.1-.773.558-1.87.558-1.96-.009-.08-.1-.476-1.043-.485-.943-.009-1.757.18-1.849.423-.091.242-.192.818-.393 1.375-.193.558-2.48 5.556-3.075 6.86a27.62 27.62 0 0 1-.76 1.555c-.192.36-.01.027-.028.063l-.256.477v.009c-.128.225-.265.44-.33.44-.045 0-.137-.602.019-1.43.339-1.734 1.162-4.44 1.153-4.54 0-.044.156-.52-.53-.764-.669-.242-.907.162-.962.162-.055 0-.1.144-.1.144s.741-3.048-1.419-3.048c-1.354 0-3.221 1.448-4.146 2.77-.586.314-1.83.98-3.148 1.69-.503.27-1.025.557-1.52.818l-.1-.108c-2.618-2.742-7.459-4.684-7.258-8.37.074-1.34.55-4.873 9.299-9.153 7.166-3.506 12.904-2.544 13.902-.405 1.419 3.057-3.066 8.74-10.516 9.558-2.837.314-4.329-.765-4.704-1.17-.394-.422-.448-.44-.595-.359-.238.126-.091.504 0 .728.22.567 1.135 1.574 2.69 2.077 1.364.44 4.696.683 8.723-.845 4.512-1.717 8.035-6.482 7.001-10.465-1.052-4.055-7.898-5.385-14.369-3.129-3.853 1.349-8.026 3.453-11.028 6.213-3.57 3.272-4.137 6.131-3.899 7.318C.88 18.86 6.82 21.62 9.2 23.66c-.119.063-.228.126-.33.18-1.189.575-5.72 2.904-6.854 5.367-1.281 2.787.201 4.792 1.19 5.062 3.056.836 6.187-.666 7.88-3.138 1.684-2.472 1.482-5.682.704-7.148l-.027-.054.933-.539c.604-.35 1.2-.674 1.721-.953-.293.782-.503 1.708-.613 3.057-.128 1.582.53 3.632 1.4 4.441.385.35.842.36 1.126.36 1.007 0 1.464-.818 1.968-1.798.622-1.196 1.171-2.58 1.171-2.58s-.686 3.749 1.19 3.749c.686 0 1.373-.873 1.684-1.322v.009s.018-.027.055-.09c.073-.108.11-.17.11-.17v-.019c.274-.467.887-1.537 1.803-3.308 1.18-2.284 2.315-5.143 2.315-5.143s.11.701.448 1.852c.202.683.641 1.43.98 2.158-.275.377-.44.593-.44.593l.01.01c-.22.287-.467.593-.723.898-.934 1.097-2.05 2.347-2.197 2.706-.174.423-.137.738.201.99.247.18.687.215 1.154.18.842-.055 1.427-.262 1.72-.387.458-.162.98-.405 1.483-.765.915-.665 1.473-1.609 1.418-2.868-.027-.692-.256-1.375-.54-2.023.083-.116.165-.233.248-.36 1.446-2.076 2.562-4.36 2.562-4.36s.11.702.449 1.852c.173.585.521 1.223.832 1.853-1.354 1.087-2.205 2.346-2.498 3.173-.54 1.529-.12 2.22.677 2.383.357.072.87-.09 1.254-.252a5.716 5.716 0 0 0 1.583-.8c.916-.665 1.794-1.592 1.748-2.841-.027-.576-.183-1.142-.393-1.681 1.153-.468 2.645-.738 4.54-.513 4.072.468 4.877 2.967 4.722 4.01-.156 1.043-1.007 1.618-1.29 1.798-.284.17-.376.234-.348.36.036.188.164.18.411.144.339-.054 2.142-.855 2.215-2.779.11-2.472-2.279-5.17-6.516-5.142zM8.925 30.214c-1.346 1.447-3.24 1.996-4.045 1.528-.87-.494-.531-2.625 1.125-4.162 1.007-.935 2.316-1.798 3.176-2.329.192-.117.485-.288.833-.494.055-.036.091-.054.091-.054.064-.036.138-.081.21-.126.614 2.194.028 4.118-1.39 5.637zm9.838-6.572c-.466 1.124-1.455 4.01-2.05 3.848-.512-.135-.823-2.32-.1-4.478.366-1.087 1.144-2.382 1.601-2.886.742-.809 1.547-1.078 1.748-.746.238.432-.906 3.56-1.199 4.262zm8.118 3.812c-.201.099-.384.17-.467.117-.064-.036.083-.171.083-.171s1.016-1.07 1.418-1.565c.23-.287.504-.62.797-.997v.107c0 1.295-1.263 2.158-1.83 2.509zm6.26-1.403c-.146-.108-.128-.44.366-1.483.193-.414.632-1.106 1.392-1.762.091.27.146.53.137.773-.01 1.618-1.18 2.22-1.895 2.472z" fill="#CF649A" fill-rule="nonzero"/></svg>