<svg class="home-tool-icon home-tool-icon__sketch" width="4.375em" height="3.938em" viewBox="0 0 96 86" xmlns="http://www.w3.org/2000/svg"><title>Sketch</title><g fill-rule="nonzero" fill="none"><path fill="#FDB300" d="M20.903 2.831l27-2.831 27 2.831 20.903 27.835L47.903 86 0 30.666z"/><path d="M19.403 30.666L47.903 86 0 30.666m76.404 0L47.904 86l47.903-55.334" fill="#EA6C00"/><path fill="#FDAD00" d="M19.403 30.666h57L47.903 86"/><path d="M47.903 0l-27 2.831-1.5 27.835M47.903 0l27 2.831 1.5 27.835" fill="#FDD231"/><path d="M95.807 30.666L74.904 2.831l1.5 27.835M0 30.666L20.903 2.831l-1.5 27.835" fill="#FDAD00"/><path fill="#FEEEB7" d="M47.903 0l-28.5 30.666h57"/></g></svg>