<svg class="home-skill-icon home-skill-icon__skill-lines home-skill-icon__skill-lines-desktop" viewBox="0 -15 997 469" xmlns="http://www.w3.org/2000/svg"><g stroke="#6F6F6F" fill="none" fill-rule="evenodd" stroke-linecap="round"><path d="M842.5 217.418l42 130.12M690.5 3.508l56 54.217M664.5 80.397l62 11.83M903.5 170.101l75 32.53M994.768 62.888l-89.075 32.824M1.5 170.101l70-56.188" stroke-width="3"/><path d="M483.5 313.036c43.384-1.884 88.826-14.522 136.326-37.914 47.501-23.392 85.392-48.541 113.674-75.448M154.5 126.728c21.786 37.27 46.111 68.968 72.975 95.097 26.864 26.129 59.873 49.632 99.025 70.51" stroke-width="4"/><path d="M384.5 145M197.5 40.967l81-7.886" stroke-width="3"/></g><path stroke-width="3" stroke-linecap="round" stroke="#6f6f6f" d="M866.875 50.338l39.072-63.056M823.252 35.916l3.717-43.914"/></svg>